<svg xmlns="http://www.w3.org/2000/svg" viewBox="0 0 656.09 227.28"><defs><style>.cls-1{fill:#d33333;}.cls-2{fill:#231f20;}</style></defs><title>Asset 1</title><g id="Layer_2" data-name="Layer 2"><g id="Layer_1-2" data-name="Layer 1"><path d="M79.71,111.59a58.15,58.15,0,0,1-.14-7.59,16.5,16.5,0,0,0,0-3.58,3,3,0,0,0-1.68-1.83,2.17,2.17,0,0,0-1.86,1.06A42.67,42.67,0,0,0,74.64,105c-1.15,5.07-1.82,10.56-6.42,13.78A122.69,122.69,0,0,1,54,127c-8.81,4.55-18,7.69-28.12,5.22S8.69,123.71,5.54,113.77c-2.93-9.23,1.93-16.14,8.37-21.84C23,83.87,33.83,79.12,45.82,77c14-2.45,23.55,4.54,28,12.57,1,1.74,1.49,3.74,2.53,5.43a3.38,3.38,0,0,0,2.59,1.11c.4,0,1.07-1.43,1.07-2.2a11.08,11.08,0,0,0-.78-3.5c-3.67-10.76-12-16.29-22.55-17.23C37.14,71.46,20.42,78.7,6.79,92.49-.82,100.18-1.88,110.82,2.85,120c5.48,10.56,16.54,16.79,28.25,17.56,18.21,1.19,44.09-13.91,45-18.84,3.6,7.48,10,9.68,17.87,8.76,1.09-.13,2.08-1.11,3.12-1.7-1-.45-2.06-1.23-3.12-1.29C85.5,124,80.86,120,79.71,111.59Z"/><path d="M165.74,83.49c-.1-5.27-2.62-9.91-6.76-13.65-6.73-6.07-14.54-7.68-23.12-6-10.75,2.07-20.79,5.52-26.28,16.19-4.32,8.41-6,17.15-7.06,26.53a23.38,23.38,0,0,0,1,7.22c.64-2.53,1.08-5.11,1.7-7.64,1.2-4.93,2.13-10,3.7-14.77,6-18.33,21.64-25.81,38.45-23.45,10.18,1.42,15.31,7.59,15.29,17.83a62.16,62.16,0,0,1-7.09,29c-4.27,8.17-10.2,15.08-20.2,15.91-14.64,1.22-33.76-9.29-38.92-27.09-3.14-10.86-2.83-21.62,0-32.47.9-3.42,1.92-6.15,6.15-4.81a1.08,1.08,0,0,0,1.09-1.8c-1.14-1.15-2.35-2.31-3.58-2.45-1.65-.19-4.28,1.48-5,2.86a31.72,31.72,0,0,0-2.87,8.76c-4.58,21.85,2.14,44.73,22.86,57,10.13,6,30.42,7.68,40.11-7.37C163.07,111.08,166,97.63,165.74,83.49Z"/><path d="M192,107.44l-1.34-.18c-.29.77-.49,1.58-.84,2.33-2.5,5.42-3.6,9.37-6.26,14.7a10.37,10.37,0,0,1-2.66,3c-2.81,2-6.71.43-6.81-3v-.16c-.09-6.56,1.37-13.55,5.37-19.24a40.64,40.64,0,0,0,3.75-7.49c1-2.37,1.25-5.37-1.48-6.19s-4.39,1.72-5.09,4.39c-.1.39-.13.79-.21,1.18-1.3,7.08-4.81,12.92-9.4,18.85l-7.08,8.14c-1.28,1.89-4.6,3-2.75,7.92l14.49-16.08c.31,3.55-.57,7.37.23,10.8a6,6,0,0,0,4.11,4.32,8,8,0,0,0,6.51-.7c1.55-.9,2.83-3.19,4.3-4.94,2.11,10.1,2.17,10.77,5,10.31-.39-4.63-1.07-9.14-1-13.66a83.13,83.13,0,0,1,.58-9.16C191.56,110.86,192,107.44,192,107.44ZM178.24,95.26c.91-2.54,2-2.81,2.74-2.61s4.3,2.15-5,13.43C176,106.08,177.33,97.8,178.24,95.26Z"/><path d="M278.78,115.08c-2-5-5-9.52-10.18-12a13.16,13.16,0,0,0-3.21-1.07h0c-11.47-3.16-24.38,9.39-24.38,9.39.4-1.85.6-3.14,1-4.37,1.84-6.14,3.83-12.25,5.52-18.43.34-1.25-.38-2.78-.6-4.09-9.51,13.88-18.53,27.09-27.63,40.24-2.55,3.68-6.17,4.75-8.87,3-3.86-2.58-4.57-6-2.36-10.37,10.21-19.94,14.65-41.24,14.47-63.52,0-4.21-1.16-8.48-2.28-12.58-1-3.53-4.52-4.3-7.1-1.78-2.11,2.06-2.93,4.77-3.72,7.54-3.47,12-6.74,24.16-9.55,36.38s-4,24.27,1.09,36.28c.64,1.52-.45,4-1.26,5.87-1.29,2.92-3,5.63-4.58,8.44l1.09.76c1.39-1.64,3.07-3,4.16-5h0l3.2-4.79,1.88,2.44A13.58,13.58,0,0,0,210,131.3c3.75,1.88,8.1-.1,10.72-3.6,5.16-6.88,10.3-13.89,15.35-20.92,2.09-2.89,3.67-6.15,6.42-8.57-4.44,9.94-8.79,19.91-13.27,29.83-1.39,3.09-4.37,5.7-2.8,10.74,4.62-6.74,8.31-13,12.9-18.57a119.26,119.26,0,0,1,9-9.42l.84-.65a17.75,17.75,0,0,1,25.8,5.58l0,.07c6.08,10.66,7.64,22.13,5.94,34.1-2,14-6.74,26.77-17.14,36.92-29.57,23.38-67.06-17.75-67.06-17.75,20.37,22.61,37.78,27.73,50,27.07h0a31.32,31.32,0,0,0,8.38-1.48,30.22,30.22,0,0,0,5.63-2.35,3,3,0,0,1,.36-.26,37.67,37.67,0,0,0,9.5-9.59h0C285.06,161.73,288.43,139.26,278.78,115.08ZM204,116.93c-1-4.59-2.33-8.57-2.78-12.63-1.17-10.68,1.5-21,4-31.21,2.19-8.92,5.09-17.67,7.83-26.44A11.62,11.62,0,0,1,214.37,44a1.6,1.6,0,0,1,2.84.24C222.69,58.34,214.67,107.47,204,116.93Z"/><rect class="cls-1" x="324.2" width="3.98" height="227.28"/><path class="cls-2" d="M398.3,147.13a1.26,1.26,0,0,1,1,.42,1.38,1.38,0,0,1,.4,1V160a1.29,1.29,0,0,1-.37.94V161a17.88,17.88,0,0,1-5.84,4.14,17.12,17.12,0,0,1-7,1.47h-.84a17,17,0,0,1-8.75-2.36,17.48,17.48,0,0,1-6.39-6.39,17.15,17.15,0,0,1-2.36-8.8v-.79a17.47,17.47,0,0,1,17.5-17.49h.84a17.08,17.08,0,0,1,11.83,4.55,1.39,1.39,0,0,1,0,2.1l-.1.16a1.33,1.33,0,0,1-1,.34,1.53,1.53,0,0,1-1-.4,14.19,14.19,0,0,0-9.79-3.77h-.84a14.53,14.53,0,0,0-14.51,14.51V149a14.58,14.58,0,0,0,14.51,14.56h.84a14.19,14.19,0,0,0,10.21-4.24V148.55a1.43,1.43,0,0,1,1.42-1.42Z"/><path class="cls-2" d="M419.08,133.12a17.93,17.93,0,1,1,0,31,18,18,0,0,1-6.53-6.52,17.93,17.93,0,0,1,6.53-24.52Zm-1.58,26.09a14.93,14.93,0,1,0-4.37-10.56A14.42,14.42,0,0,0,417.5,159.21Z"/><path class="cls-2" d="M478.51,130.74a1.48,1.48,0,0,1,.57.1,1.52,1.52,0,0,1,.79.79,1.48,1.48,0,0,1,.1.57v32.85a1.49,1.49,0,0,1-.42,1.07,1.36,1.36,0,0,1-1,.45h-.89a1.37,1.37,0,0,1-1.26-.74l-16.92-29.49v28.71a1.44,1.44,0,0,1-.45,1.07,1.44,1.44,0,0,1-2.09,0,1.44,1.44,0,0,1-.45-1.07v-32.9a1.38,1.38,0,0,1,.45-1.05,1.49,1.49,0,0,1,1.07-.42h.79a1.41,1.41,0,0,1,1.31.74L477,161V132.2a1.37,1.37,0,0,1,.44-1A1.53,1.53,0,0,1,478.51,130.74Z"/><path class="cls-2" d="M515.7,163.58a1.38,1.38,0,0,1,1,.45,1.51,1.51,0,0,1,0,2.09,1.38,1.38,0,0,1-1,.45H493a1.44,1.44,0,0,1-1.33-.76,1.41,1.41,0,0,1,0-1.55L511,133.72H492a1.43,1.43,0,0,1-.76-.21,1.61,1.61,0,0,1-.55-.55,1.4,1.4,0,0,1-.21-.76,1.34,1.34,0,0,1,.45-1,1.49,1.49,0,0,1,1.07-.42h21.74a1.39,1.39,0,0,1,1.31.76,1.37,1.37,0,0,1,0,1.49l-19.33,30.59Z"/><path class="cls-2" d="M584.53,163.58a1.38,1.38,0,0,1,1.05.45,1.51,1.51,0,0,1,0,2.09,1.38,1.38,0,0,1-1.05.45H565.62a1.45,1.45,0,0,1-1.07-.45,1.44,1.44,0,0,1-.45-1.07V132.2a1.34,1.34,0,0,1,.45-1,1.54,1.54,0,0,1,1.78-.24,1.45,1.45,0,0,1,.55.52,1.43,1.43,0,0,1,.21.76v31.38Z"/><path class="cls-2" d="M617.38,163.58a1.47,1.47,0,0,1,1.08.45,1.46,1.46,0,0,1,0,2.09,1.47,1.47,0,0,1-1.08.45H598a1.52,1.52,0,0,1-1.52-1.52V132.2a1.37,1.37,0,0,1,.44-1,1.53,1.53,0,0,1,1.08-.42h19.38a1.53,1.53,0,0,1,1.08.42,1.37,1.37,0,0,1,.44,1,1.5,1.5,0,0,1-1.52,1.52H599.47v13.41h13.46a1.38,1.38,0,0,1,1.05.45,1.5,1.5,0,0,1,.42,1.07,1.44,1.44,0,0,1-1.47,1.47H599.47v13.46Z"/><path class="cls-2" d="M654.63,163.58a1.34,1.34,0,0,1,1,.45,1.51,1.51,0,0,1,0,2.09,1.34,1.34,0,0,1-1,.45H631.89a1.52,1.52,0,0,1-1.31-2.31l19.33-30.54h-19a1.4,1.4,0,0,1-.76-.21,1.61,1.61,0,0,1-.55-.55,1.4,1.4,0,0,1-.21-.76,1.33,1.33,0,0,1,.44-1,1.53,1.53,0,0,1,1.08-.42h21.74a1.39,1.39,0,0,1,1.31.76,1.35,1.35,0,0,1-.06,1.49l-19.33,30.59Z"/><path class="cls-2" d="M384.34,59.93a2,2,0,0,1,2.08-1.46h1.46A2,2,0,0,1,390,59.93l16.25,48.29a2.29,2.29,0,0,1-1.46,2.77,2,2,0,0,1-1.66-.08,2.09,2.09,0,0,1-1.12-1.23L387.19,65.4l-14.8,44.18a2,2,0,0,1-2.08,1.54,2,2,0,0,1-1.74-.93,2.23,2.23,0,0,1-.34-2Z"/><path class="cls-2" d="M451.78,58.47a2.34,2.34,0,0,1,.85.15,2.13,2.13,0,0,1,.7.46,2.1,2.1,0,0,1,.61,1.54v48.29a2.2,2.2,0,0,1-.61,1.58,2,2,0,0,1-1.55.66h-1.3a2,2,0,0,1-1.85-1.08L423.75,66.71v42.2a2.16,2.16,0,0,1-.65,1.58,2.11,2.11,0,0,1-1.54.66,2.13,2.13,0,0,1-1.55-.66,2.16,2.16,0,0,1-.65-1.58V60.54A2.07,2.07,0,0,1,420,59a2.28,2.28,0,0,1,1.58-.61h1.16a2.06,2.06,0,0,1,1.92,1.08l24.88,43.43V60.62a2,2,0,0,1,.66-1.54A2.2,2.2,0,0,1,451.78,58.47Z"/><path class="cls-2" d="M485.83,58.47A26.87,26.87,0,0,1,499,61.86a26.4,26.4,0,0,1,9.81,9.31,25.12,25.12,0,0,1,3.86,12.94,27.09,27.09,0,0,1-1.85,10.32,25.81,25.81,0,0,1-5.66,8.74,26.53,26.53,0,0,1-8.63,5.9,25.92,25.92,0,0,1-10.2,2.08H471.58a2.25,2.25,0,0,1-2.24-2.24V60.62a2,2,0,0,1,.66-1.54,2.2,2.2,0,0,1,1.58-.61Zm-12.1,48.29h12.64a22,22,0,0,0,21.95-22,22,22,0,0,0-21.95-22H473.73Z"/><path class="cls-2" d="M547.44,91.66l12,15.94a2,2,0,0,1,.24,2.31,2.09,2.09,0,0,1-2,1.24,2.2,2.2,0,0,1-1.77-.85L542.13,91.89H532.5V109a2,2,0,0,1-.66,1.5,2.13,2.13,0,0,1-3.08,0,2.06,2.06,0,0,1-.65-1.5V60.62a2.05,2.05,0,0,1,.65-1.54,2.24,2.24,0,0,1,1.58-.61h13.94a16.87,16.87,0,0,1,11.79,4.58,15.76,15.76,0,0,1,5.31,11.28,16.14,16.14,0,0,1-3.7,11.32A16.38,16.38,0,0,1,547.44,91.66ZM532.5,87.5h12.17A12.36,12.36,0,0,0,557,75.18a12.14,12.14,0,0,0-1.66-6.24,11.92,11.92,0,0,0-4.5-4.47,12.37,12.37,0,0,0-6.16-1.61H532.5Z"/><path class="cls-2" d="M607.51,106.76a2.16,2.16,0,0,1,1.58.65,2.13,2.13,0,0,1,0,3.08,2.13,2.13,0,0,1-1.58.66H579a2.25,2.25,0,0,1-2.24-2.24V60.62a2,2,0,0,1,.66-1.54,2.2,2.2,0,0,1,1.58-.61h28.49a2.2,2.2,0,0,1,1.58.61,2,2,0,0,1,.66,1.54,2.25,2.25,0,0,1-2.24,2.24H581.17V82.57H601a2,2,0,0,1,1.54.66,2.2,2.2,0,0,1,.61,1.58A2.09,2.09,0,0,1,601,87h-19.8v19.8Z"/><path class="cls-2" d="M634.14,59.93a2,2,0,0,1,2.08-1.46h1.46a2,2,0,0,1,2.08,1.46L656,108.22a2.23,2.23,0,0,1-.19,1.69,2.26,2.26,0,0,1-1.27,1.08,2.16,2.16,0,0,1-2.77-1.31L637,65.4l-14.8,44.18a2,2,0,0,1-2.08,1.54,2,2,0,0,1-1.73-.93,2.24,2.24,0,0,1-.35-2Z"/><path class="cls-2" d="M534.6,131.8a1.43,1.43,0,0,1,1.51-1.06h1.06a1.43,1.43,0,0,1,1.51,1.06l11.77,35a1.62,1.62,0,0,1-.14,1.23,1.65,1.65,0,0,1-.92.78,1.52,1.52,0,0,1-1.2,0,1.56,1.56,0,0,1-.81-.9l-10.71-32.08-10.72,32a1.44,1.44,0,0,1-1.51,1.11,1.47,1.47,0,0,1-1.26-.67,1.66,1.66,0,0,1-.25-1.45Z"/></g></g></svg>